<?xml version="1.0" encoding="UTF-8"?>
<svg width="1041px" height="1010px" viewBox="0 0 1041 1010" version="1.1" xmlns="http://www.w3.org/2000/svg" xmlns:xlink="http://www.w3.org/1999/xlink">
    <!-- Generator: Sketch 50.2 (55047) - http://www.bohemiancoding.com/sketch -->
    <title>logo</title>
    <desc>Created with Sketch.</desc>
    <defs></defs>
    <g id="Page-1" stroke="none" stroke-width="1" fill="none" fill-rule="evenodd">
        <g id="logo" transform="translate(1.000000, 1.000000)" fill-rule="nonzero">
            <path d="M515.823448,0.338800226 C506.644439,0.801192828 497.650959,3.07702985 489.370612,7.03279882 L128.402508,179.507135 C109.476949,188.54543 95.7306888,205.639048 91.0546126,225.949636 L2.00134852,613.370575 C-2.15319416,631.404501 1.22726043,650.338377 11.3729466,665.860757 C12.5906125,667.738986 13.9002007,669.557002 15.2970147,671.308287 L265.144742,981.955987 C278.245345,998.239201 298.108355,1007.72043 319.11222,1007.71634 L719.78266,1007.62401 C740.778669,1007.63931 760.640279,998.175738 773.750138,981.909822 L1023.50553,671.215956 C1036.61315,654.924581 1041.52415,633.598235 1036.84737,613.278244 L947.655605,225.857305 C942.979529,205.546717 929.233269,188.453099 910.30771,179.414804 L549.293441,7.03279882 C538.878011,2.05675523 527.36927,-0.244992958 515.823448,0.338800226 Z" id="path3055" stroke="#FFFFFF" fill="#326CE5"></path>
            <g id="mobile" transform="translate(175.000000, 110.000000)" fill="#FFFFFF">
                <path d="M435.322602,79.6296244 L480.057411,2.72173766 C481.543764,0.166405183 484.953586,-0.771032522 487.603783,0.747702857 C490.272456,2.27702658 491.172171,5.61260028 489.654621,8.22156498 L445.244795,84.5707424 C502.403003,114.889437 544.223223,169.967313 556.164896,235.371733 L130.913161,235.371733 C142.795347,170.293123 184.259142,115.43843 240.980211,85.0256783 L197.423473,8.41204711 C195.937044,5.79751117 196.824084,2.31894844 199.474413,0.765026083 C202.143221,-0.799729926 205.503539,0.115385758 207.021164,2.78479652 L250.92953,80.0169172 C278.998266,66.7825051 310.397386,59.3772593 343.539028,59.3772593 C376.355981,59.3772593 407.46439,66.6381176 435.322602,79.6296244 Z M249.342843,169.373806 C261.583576,169.373806 271.506652,159.524379 271.506652,147.374496 C271.506652,135.224613 261.583576,125.375187 249.342843,125.375187 C237.102111,125.375187 227.179035,135.224613 227.179035,147.374496 C227.179035,159.524379 237.102111,169.373806 249.342843,169.373806 Z M482.06283,647.858782 L515.314203,647.858782 C539.792544,647.858782 559.636159,628.171282 559.636159,603.883345 L559.636159,262.87087 L127.441898,262.87087 L127.441898,603.883345 C127.441898,628.170308 147.277861,647.858782 171.763854,647.858782 L205.015227,647.858782 L205.015227,774.361164 C205.015227,792.58248 219.946884,807.353775 238.226249,807.353775 L271.541341,807.353775 C289.883283,807.353775 304.752364,792.566381 304.752364,774.361164 L304.752364,647.858782 L382.325693,647.858782 L382.325693,774.361164 C382.325693,792.58248 397.25735,807.353775 415.536716,807.353775 L448.851808,807.353775 C467.193748,807.353775 482.06283,792.566381 482.06283,774.361164 L482.06283,647.858782 Z M437.735213,169.373806 C449.975946,169.373806 459.899022,159.524379 459.899022,147.374496 C459.899022,135.224613 449.975946,125.375187 437.735213,125.375187 C425.494481,125.375187 415.571405,135.224613 415.571405,147.374496 C415.571405,159.524379 425.494481,169.373806 437.735213,169.373806 Z M0,312.360206 L0,499.372555 C0,526.70476 22.320863,548.861891 49.8685687,548.861891 C77.4102186,548.861891 99.7371372,526.658631 99.7371372,499.372555 L99.7371372,312.360206 C99.7371372,285.028001 77.4162743,262.87087 49.8685687,262.87087 C22.3269186,262.87087 0,285.07413 0,312.360206 Z M637.209488,262.87087 C609.667838,262.87087 587.340919,285.07413 587.340919,312.360206 L587.340919,499.372555 C587.340919,526.70476 609.661783,548.861891 637.209488,548.861891 C664.751138,548.861891 687.078057,526.658631 687.078057,499.372555 L687.078057,312.360206 C687.078057,285.028001 664.757194,262.87087 637.209488,262.87087 Z" id="android"></path>
            </g>
            <path d="M519.632559,261.490828 C510.32256,261.491773 502.77378,269.877488 502.774887,280.221575 C502.774898,280.380331 502.807392,280.532033 502.81085,280.689844 C502.797133,282.095353 502.729241,283.788613 502.774887,285.012324 C502.996912,290.978499 504.297437,295.544756 505.080209,301.041521 C506.498306,312.806344 507.686573,322.558666 506.953284,331.623068 C506.240144,335.041171 503.722513,338.1672 501.478143,340.34007 L501.081915,347.472162 C490.965214,348.310343 480.78084,349.845192 470.60843,352.154849 C426.836564,362.093303 389.149758,384.640386 360.457227,415.082956 C358.595426,413.812804 355.338224,411.476117 354.369677,410.760476 C351.359882,411.166928 348.317963,412.095592 344.355931,409.787918 C336.811866,404.709719 329.940898,397.700039 321.62689,389.256137 C317.817367,385.216993 315.058656,381.370769 310.532524,377.477379 C309.504673,376.593207 307.936062,375.397344 306.786374,374.487663 C303.247842,371.666444 299.074263,370.195129 295.043637,370.057121 C289.861398,369.879681 284.872622,371.905817 281.607927,376.000531 C275.804035,383.280026 277.662229,394.406286 285.750304,400.854792 C285.832374,400.920148 285.919769,400.970958 286.002449,401.034896 C287.113868,401.935839 288.474861,403.090241 289.496454,403.844508 C294.299444,407.390728 298.686853,409.206055 303.472473,412.021199 C313.554802,418.247657 321.913176,423.410485 328.542858,429.635306 C331.131758,432.394973 331.584247,437.257764 331.928801,439.360887 L337.331901,444.187656 C308.407685,487.716391 295.021321,541.48318 302.932221,596.266916 L295.87217,598.320094 C294.011428,600.722944 291.382081,604.503823 288.631958,605.63229 C279.958031,608.36434 270.196015,609.367593 258.410617,610.603142 C252.877485,611.063227 248.103312,610.788663 242.237337,611.899886 C240.946264,612.144458 239.147375,612.613119 237.734754,612.944486 C237.68565,612.95486 237.639775,612.969383 237.590671,612.980449 C237.513673,612.998315 237.412516,613.035661 237.338526,613.05249 C227.402424,615.453242 221.019446,624.58602 223.074342,633.584271 C225.129722,642.584631 234.835107,648.057975 244.830825,645.903339 C244.902982,645.886856 245.007759,645.88409 245.08297,645.867376 C245.195816,645.841557 245.295164,645.786805 245.407156,645.759372 C246.800551,645.453502 248.546741,645.11319 249.765657,644.786814 C255.532814,643.242674 259.709597,640.973856 264.894337,638.987486 C276.048572,634.986864 285.286911,631.64478 294.287203,630.342526 C298.046239,630.048113 302.006703,632.661865 303.976762,633.764489 L311.324979,632.503766 C328.234728,684.930056 363.672127,727.304424 408.544762,753.893417 L405.483005,761.241634 C406.586586,764.094955 407.803785,767.95554 406.981718,770.773359 C403.709681,779.25833 398.105107,788.214244 391.72311,798.198839 C388.632997,802.811698 385.470463,806.391506 382.681922,811.670569 C382.014646,812.933759 381.164812,814.874184 380.520682,816.209173 C376.188012,825.479291 379.36613,836.156209 387.688795,840.162917 C396.063744,844.194788 406.459274,839.942367 410.958146,830.653461 C410.965062,830.64032 410.98777,830.630638 410.994109,830.617498 C410.99872,830.607124 410.989499,830.591563 410.994109,830.581535 C411.634908,829.264562 412.542744,827.533472 413.083308,826.295075 C415.471772,820.823369 416.266509,816.134296 417.946098,810.842209 C422.40646,799.638179 424.857076,787.882312 430.997199,780.557057 C432.678563,778.551161 435.419742,777.779719 438.261755,777.018801 L442.079946,770.102833 C481.199244,785.118322 524.987029,789.147635 568.728615,779.216062 C578.70717,776.950426 588.340502,774.018193 597.653211,770.499061 C598.726316,772.402485 600.720593,776.061459 601.255278,776.982781 C604.143375,777.922407 607.295731,778.407632 609.864217,782.205778 C614.458023,790.054226 617.599613,799.339121 621.426852,810.554043 C623.106718,815.846039 623.93691,820.535319 626.325663,826.00691 C626.870111,827.254032 627.773405,829.009431 628.414862,830.32939 C632.90427,839.648473 643.332743,843.915429 651.720234,839.874867 C660.041873,835.866026 663.223495,825.190076 658.888347,815.921123 C658.244136,814.58618 657.358419,812.645674 656.691086,811.382519 C653.902268,806.103606 650.740241,802.559495 647.649898,797.94681 C641.26737,787.962549 635.973807,779.668251 632.701321,771.183453 C631.332985,766.807294 632.932176,764.085664 633.998065,761.241749 C633.359744,760.510074 631.993806,756.377414 631.188453,754.433843 C677.822135,726.898883 712.218888,682.944297 728.372215,632.179695 C730.553512,632.52252 734.344776,633.1933 735.576349,633.440419 C738.111674,631.768253 740.442816,629.586472 745.013764,629.946414 C754.014113,631.248195 763.252187,634.591328 774.406629,638.591374 C779.591473,640.577479 783.768084,642.882882 789.53531,644.426722 C790.754237,644.753029 792.500393,645.057459 793.89381,645.36326 C794.005849,645.390693 794.105093,645.44556 794.217996,645.471264 C794.293265,645.488093 794.397984,645.490744 794.470141,645.507227 C804.466435,647.659188 814.17355,642.189049 816.226625,633.188159 C818.279215,624.189377 811.899188,615.054478 801.96244,612.656378 C800.517083,612.32772 798.467283,611.769543 797.063629,611.503717 C791.197597,610.392805 786.423504,610.666769 780.890349,610.206973 C769.104894,608.972034 759.343074,607.967709 750.669009,605.23612 C747.132344,603.864131 744.616349,599.65581 743.392776,597.923925 L736.58487,595.942788 C740.114619,570.406244 739.162855,543.829423 733.054844,517.237628 C726.889962,490.398243 715.99503,465.851016 701.464719,444.223734 C703.211058,442.636185 706.508984,439.715779 707.44415,438.856655 C707.717515,435.831875 707.482648,432.660489 710.613968,429.311178 C717.243316,423.086011 725.602358,417.924059 735.684353,411.697071 C740.469823,408.881673 744.893587,407.066853 749.696393,403.520379 C750.782488,402.718404 752.26556,401.448367 753.406522,400.530664 C761.492879,394.079991 763.354658,382.954399 757.548899,375.676403 C751.743139,368.398407 740.49283,367.712862 732.406472,374.163535 C731.255471,375.075117 729.693649,376.264283 728.660323,377.15325 C724.134398,381.046895 721.339252,384.892668 717.529937,388.932009 C709.216378,397.376349 702.344695,404.421207 694.800895,409.49981 C691.531936,411.402923 686.743838,410.744431 684.570968,410.616451 L678.159289,415.191076 C641.598253,376.852902 591.81958,352.341684 538.219224,347.580224 C538.069309,345.33401 537.872907,341.273818 537.822997,340.051905 C535.628664,337.952159 532.977877,336.159529 532.311834,331.623068 C531.578546,322.558666 532.802834,312.806344 534.22093,301.041521 C535.003702,295.544756 536.304227,290.978499 536.526253,285.012324 C536.576739,283.656068 536.495707,281.688037 536.49029,280.221575 C536.489183,269.877488 528.942617,261.489883 519.632617,261.490828 L519.632559,261.490828 Z M498.524448,392.245853 L493.517575,480.676593 L493.157368,480.856696 C492.821552,488.767815 486.310606,495.08486 478.316853,495.08486 C475.042361,495.08486 472.019933,494.033298 469.563831,492.239227 L469.419748,492.311269 L396.910143,440.909775 C419.195295,418.996357 447.699758,402.802341 480.550135,395.34363 C486.550878,393.98115 492.548948,392.970185 498.524448,392.245853 Z M540.776691,392.245853 C579.129735,396.962912 614.598901,414.329485 641.778645,440.945796 L569.737309,492.023103 L569.485164,491.915099 C563.090833,496.585325 554.081654,495.426555 549.097466,489.177528 C547.055734,486.617513 545.98445,483.607419 545.855606,480.568588 L545.783564,480.532625 L540.776691,392.245853 Z M370.615056,473.940728 L436.821044,533.158706 L436.749002,533.518913 C442.724825,538.713923 443.606046,547.728853 438.622077,553.978652 C436.580483,556.538771 433.847661,558.255879 430.913654,559.057566 L430.841613,559.345732 L345.976919,583.839786 C341.657574,544.343648 350.966271,505.950261 370.615056,473.940728 Z M668.181794,473.976691 C678.018722,489.920948 685.467738,507.729083 689.902257,527.035135 C694.283592,546.109698 695.38315,565.150154 693.576365,583.551563 L608.279423,558.985467 L608.207382,558.625261 C600.569271,556.537745 595.875139,548.768139 597.653326,540.975133 C598.381843,537.782699 600.076474,535.081991 602.372034,533.086607 L602.336071,532.906504 L668.181852,473.976691 L668.181794,473.976691 Z M506.052768,537.733273 L533.176331,537.733273 L550.034003,558.805364 L543.982531,585.100452 L519.632559,596.807169 L495.210546,585.064431 L489.159074,558.769343 L506.052768,537.733273 Z M593.00666,609.846651 C594.159287,609.788441 595.306888,609.892296 596.428624,610.098795 L596.572706,609.918692 L684.355074,624.759207 C671.508087,660.852608 646.92492,692.120946 614.078751,713.045864 L580.003199,630.738638 L580.111203,630.594555 C576.981025,623.321274 580.113509,614.792075 587.315337,611.323498 C589.159192,610.435476 591.085565,609.943751 593.006602,609.846651 L593.00666,609.846651 Z M445.574066,610.206857 C452.273034,610.300799 458.28172,614.950347 459.83825,621.769492 C460.566951,624.96188 460.212289,628.124978 459.009775,630.918741 L459.26192,631.242927 L425.546574,712.721678 C394.024559,692.494085 368.917162,662.207412 355.486375,625.04743 L442.512309,610.278956 L442.656392,610.45906 C443.629826,610.279924 444.617069,610.193486 445.574066,610.206915 L445.574066,610.206857 Z M519.092249,645.903397 C521.425755,645.817639 523.793552,646.296431 526.044238,647.380244 C528.994487,648.800934 531.273552,651.037858 532.708062,653.719882 L533.032248,653.719882 L575.932863,731.236359 C570.365175,733.102783 564.641289,734.697894 558.787025,736.027108 C525.977061,743.476644 493.271344,741.219467 463.656441,731.128297 L506.448995,653.755903 L506.521036,653.755903 C509.088785,648.955748 513.958549,646.092007 519.092249,645.903397 Z" id="path3059" fill="#326CE5"></path>
        </g>
    </g>
</svg>